<svg xmlns="http://www.w3.org/2000/svg" viewBox="0 0 177.57 127.37"><defs><style>.cls-1{fill:#1d71b8;stroke:#1d71b8;stroke-miterlimit:10;}</style></defs><g id="Layer_2" data-name="Layer 2"><g id="Layer_21" data-name="Layer 21"><path class="cls-1" d="M94.18,126.87l-50.07-.07L0,126l92.49.13a24.89,24.89,0,0,1-4.69-10.75,73.08,73.08,0,0,1-1-12.48,84.32,84.32,0,0,1,.44-14,84.57,84.57,0,0,1,2.16-9.6c1.53-5.7,3.1-11.6,5.7-17l.4-.83,4.6,12.94c1.84,5.2,3.75,10.58,7.35,14.88.86,1,1.6,1.46,2.29,1.35a3,3,0,0,0,1.56-1.11c3.43-3.76,6.72-7.73,9.77-11.81l.61.46c-3.06,4.1-6.36,8.09-9.81,11.87a3.63,3.63,0,0,1-2,1.35c-1,.16-2-.37-3-1.61-3.69-4.41-5.71-10.1-7.49-15.12l-4-11.19a102.88,102.88,0,0,0-5.26,16.06A83.47,83.47,0,0,0,88,89a83.73,83.73,0,0,0-.43,13.88,72.4,72.4,0,0,0,1,12.35,23.51,23.51,0,0,0,5.05,11Z"/><path class="cls-1" d="M105.93,102.77l-.72-.36a26.74,26.74,0,0,1-4-2.57c-.87-.64-1.77-1.3-2.7-1.86C97,97,94,95.64,91.24,96.75L91,96c3-1.23,6.28.28,8,1.29,1,.58,1.88,1.25,2.76,1.9a31.78,31.78,0,0,0,3.14,2.1c-.07-.26-.15-.53-.22-.8a22.94,22.94,0,0,1-.77-3.72,7.11,7.11,0,0,1,1.45-5.4l.57.51a6.42,6.42,0,0,0-1.26,4.81,22.28,22.28,0,0,0,.76,3.61c.14.53.29,1.09.42,1.65Z"/><path class="cls-1" d="M93.9,94.87c-.52-1.19.21-2.52.6-3.24l1-1.77a1.46,1.46,0,0,1,.43-.53,1.37,1.37,0,0,1,.72-.19l.22,0a2.16,2.16,0,0,0,.75-.39l.38-.24a4.26,4.26,0,0,1,2.89-.39,11.54,11.54,0,0,1,2.63.92l2.66,1.18-.31.7-2.66-1.18a11.43,11.43,0,0,0-2.46-.87,3.51,3.51,0,0,0-2.36.31,3.87,3.87,0,0,0-.34.21,2.62,2.62,0,0,1-1.06.51l-.29,0a.75.75,0,0,0-.34.07.8.8,0,0,0-.19.26l-1,1.77a3.11,3.11,0,0,0-.57,2.56Z"/><path class="cls-1" d="M120,94.72a14.64,14.64,0,0,1-7.23-1.81l.38-.67c4.61,2.62,11.1,2.2,16.13-1,5.55-3.59,8.41-9.41,9.84-13.66l.73.25c-1.47,4.36-4.42,10.34-10.16,14.06A18,18,0,0,1,120,94.72Z"/><path class="cls-1" d="M114.27,122.71l-.1-.76c8-1.08,15.93-6.23,23.58-15.33a48.89,48.89,0,0,0,6.37-9.22c4.7-9.18,4.91-20.09,5.09-29.71l.77,0c-.19,9.7-.4,20.7-5.17,30a49.66,49.66,0,0,1-6.47,9.37C130.56,116.36,122.46,121.61,114.27,122.71Z"/><path class="cls-1" d="M177.55,125.84l-24.46.72,0-.42c1.46-16.07-.73-32.41-2.71-46.86a.39.39,0,0,1,.33-.43h0a.39.39,0,0,1,.44.33c1.94,14.24,4.1,30.31,2.78,46.2a.38.38,0,0,0,.38.41l23.2,0"/><path class="cls-1" d="M149.6,67.67l-.87-1.13a19,19,0,0,0-3.95-4.24,6.1,6.1,0,0,0-5.27-1.09,9.11,9.11,0,0,0-2.44,1.39l-3.89,2.76-.44-.62L136.62,62a10.36,10.36,0,0,1,2.65-1.5,6.92,6.92,0,0,1,5.95,1.2,15.44,15.44,0,0,1,3.11,3.09C147.26,61,144.19,58,140.86,55l-6.27-5.68.51-.57,6.28,5.68c3.9,3.53,7.46,7.09,8,11.84Z"/><path class="cls-1" d="M97.54,60.71,97.25,60a99.85,99.85,0,0,0,12.1-5.85c2.22-1.26,4.52-2.88,4.82-5.29l.77.1c-.35,2.76-3,4.58-5.21,5.86A101.38,101.38,0,0,1,97.54,60.71Z"/><path class="cls-1" d="M122.37,82.36a133.07,133.07,0,0,1,1.42-25.22,38.27,38.27,0,0,1-11.54,8.4l-.44.21-.1-.49a49.68,49.68,0,0,1-1-8.78h.77a49.77,49.77,0,0,0,.86,8.16,37.45,37.45,0,0,0,11.71-9l.89-1L124.75,56a132.86,132.86,0,0,0-1.61,26.35Z"/><path class="cls-1" d="M130,84.11l-.74-.18a75.86,75.86,0,0,0,1.6-13c.17-2.63.35-5.36.69-8,.21-1.59.48-3.2.75-4.76a63,63,0,0,0,1.11-9.4,46.29,46.29,0,0,0-8.29-1l-.59,5.67-.77-.08.66-6.38h.36a47.06,47.06,0,0,1,9.08,1l.32.06v.32a61.76,61.76,0,0,1-1.12,9.83c-.27,1.56-.54,3.16-.74,4.74-.35,2.64-.52,5.35-.69,8A75,75,0,0,1,130,84.11Z"/><path class="cls-1" d="M119.74,46.76a9.39,9.39,0,0,1-7.14-3.17,18.2,18.2,0,0,1-2.39-4.19l-1.42-3.09c-.29-.64-.59-1.3-.84-2a14,14,0,0,1-.88-5.18V29l.14-.11a2,2,0,0,1,1.66-.36,2,2,0,0,1,.73.31,26.94,26.94,0,0,0,.06-4.4,3.42,3.42,0,0,0-.21-1.1,3.07,3.07,0,0,0-.74-.88c-3.62-3.27-9-4.13-13.24-4.82l-.25,0-.06-.25a2.54,2.54,0,0,1,1-2.29A49.51,49.51,0,0,1,103,9.93,38.76,38.76,0,0,0,111,3.68l.42-.48A7.58,7.58,0,0,1,114.29.79c1.58-.61,3.3-.15,4.92.37a166.54,166.54,0,0,1,26.3,10.94l.62.33-.61.35a68.57,68.57,0,0,0-13,9.62,1.84,1.84,0,0,1-.76.5c-.86.23-1.48-.54-1.9-1a7.25,7.25,0,0,0-7.63-2.24c-.43.14-.85.33-1.26.51a8.17,8.17,0,0,1-2.54.79,8.36,8.36,0,0,1-3-.46,12.17,12.17,0,0,0-1.32-.34c-1.31-.26-2.86,0-3.4,1.06l-.69-.34c.72-1.46,2.65-1.8,4.24-1.48.47.1.93.23,1.38.36a7.66,7.66,0,0,0,2.75.43,7.59,7.59,0,0,0,2.3-.73c.43-.18.87-.38,1.33-.53a7.92,7.92,0,0,1,8.47,2.48c.38.47.76.89,1.1.79a1.06,1.06,0,0,0,.43-.31,68.88,68.88,0,0,1,12.51-9.37A166.48,166.48,0,0,0,119,1.89c-1.49-.48-3.07-.9-4.42-.38A7.08,7.08,0,0,0,112,3.71l-.42.48a40.11,40.11,0,0,1-8.08,6.39,48.28,48.28,0,0,0-6.72,5,2.24,2.24,0,0,0-.84,1.31c4.33.7,9.63,1.61,13.34,5a3.49,3.49,0,0,1,.91,1.13,2.47,2.47,0,0,1,.18.52,13.7,13.7,0,0,1,.13,4.82L110.1,31l-.56-1.14a1.24,1.24,0,0,0-.83-.61,1.36,1.36,0,0,0-.88.11,13.46,13.46,0,0,0,.84,4.7c.24.66.54,1.31.82,1.93l1.42,3.09a16.7,16.7,0,0,0,2.28,4,8.69,8.69,0,0,0,11.12,1.56l.43.64A9,9,0,0,1,119.74,46.76Z"/><path class="cls-1" d="M125.43,45.29l-.44-.63a10.74,10.74,0,0,0,3.92-5.16c.11-.32.21-.66.31-1a9.76,9.76,0,0,1,.92-2.32,9.74,9.74,0,0,1,.84-1.13l.29-.36a13.59,13.59,0,0,0,1.59-2.57,4.8,4.8,0,0,0,.57-2.12,1.68,1.68,0,0,0-1.52-1.76,1.41,1.41,0,0,0-1.15.66l-.71,1.1,0-1.37a29.1,29.1,0,0,1,.48-4.46l.76.15a28.2,28.2,0,0,0-.43,3.43,2.13,2.13,0,0,1,1.92-.08A2.6,2.6,0,0,1,134.19,30a5.4,5.4,0,0,1-.63,2.47,14.38,14.38,0,0,1-1.69,2.72l-.3.37a8.46,8.46,0,0,0-.77,1,8.91,8.91,0,0,0-.84,2.15c-.11.33-.21.68-.33,1A11.46,11.46,0,0,1,125.43,45.29Z"/><path class="cls-1" d="M116.12,92.29l-.51-.58a4.31,4.31,0,0,0,1.46-1.88,4.17,4.17,0,0,0,.09-1.24v-.12a13.75,13.75,0,0,1,.32-3.13A3.9,3.9,0,0,1,118,84a2.94,2.94,0,0,1,1.77-1.17,8.24,8.24,0,0,1,2-.16v.77a7.51,7.51,0,0,0-1.78.14,2.18,2.18,0,0,0-1.31.84,3.6,3.6,0,0,0-.41,1.24,12.59,12.59,0,0,0-.26,2.67v.22a4.84,4.84,0,0,1-.12,1.46A5.11,5.11,0,0,1,116.12,92.29Z"/><path class="cls-1" d="M119.7,86.68l-.23-.73a15.94,15.94,0,0,1,8.82-.21l-.19.74A15.47,15.47,0,0,0,119.7,86.68Z"/><path class="cls-1" d="M120.1,89.81l-.37-.68c1.67-.91,3.68-.71,5.29-.56l3.2.31-.08.77-3.2-.31C123.44,89.19,121.56,89,120.1,89.81Z"/><path class="cls-1" d="M119.93,93.09l-.26-.73a10.39,10.39,0,0,1,3.22-.4,16.19,16.19,0,0,0,2-.12l.12.76a18.46,18.46,0,0,1-2.09.13A9.32,9.32,0,0,0,119.93,93.09Z"/><path class="cls-1" d="M102,40.74l-.76-1-.13.23-.2.28-.3-.16a3.4,3.4,0,0,1-1.11-.92,1.05,1.05,0,0,1-.36.23l-.31.14-.3-.51-.89,1.54.18-1.79c.67-6.41,1.63-12.86,2.86-19.19l.76.15c-1.16,6-2.08,12-2.74,18.05l.36.61v0l0-1.65.72,1.49a2.72,2.72,0,0,0,.83,1,1.09,1.09,0,0,0,.07-.35l.07-1,.48.63c.07-2.46.34-4.94.61-7.35a55.61,55.61,0,0,0,.46-11.68l.77-.07a55.73,55.73,0,0,1-.47,11.84,78.14,78.14,0,0,0-.62,8.4Z"/></g></g></svg>