<svg xmlns="http://www.w3.org/2000/svg" viewBox="0 0 265.17 238.54"><defs><style>.cls-1{fill:#fff;stroke:#231f20;stroke-miterlimit:10;}</style></defs><g id="Layer_2" data-name="Layer 2"><g id="Layer_5" data-name="Layer 5"><path class="cls-1" d="M256.48,12.38h8.19V.5H.5V12.38H8.68c2.12,0,3.83,1.35,3.83,3V33.1c0,1.68-1.71,3-3.83,3H.5V202.41H8.68c2.12,0,3.83,1.35,3.83,3v17.7c0,1.67-1.71,3-3.83,3H.5V238H264.67V226.16h-8.19c-2.11,0-3.82-1.36-3.82-3v-17.7c0-1.67,1.71-3,3.82-3h8.19V36.13h-8.19c-2.11,0-3.82-1.35-3.82-3V15.4C252.66,13.73,254.37,12.38,256.48,12.38Zm-47.85,3c0-1.67,1.71-3,3.83-3h16.36c2.11,0,3.83,1.35,3.83,3V33.1c0,1.68-1.72,3-3.83,3H212.46c-2.12,0-3.83-1.35-3.83-3Zm-44,0c0-1.67,1.72-3,3.83-3H184.8c2.11,0,3.82,1.35,3.82,3V33.1c0,1.68-1.71,3-3.82,3H168.43c-2.11,0-3.83-1.35-3.83-3Zm-44,0c0-1.67,1.71-3,3.82-3h16.37c2.11,0,3.82,1.35,3.82,3V33.1c0,1.68-1.71,3-3.82,3H124.4c-2.11,0-3.82-1.35-3.82-3Zm-44,0c0-1.67,1.71-3,3.82-3H96.74c2.11,0,3.82,1.35,3.82,3V33.1c0,1.68-1.71,3-3.82,3H80.37c-2.11,0-3.82-1.35-3.82-3Zm-44,0c0-1.67,1.71-3,3.82-3H52.71c2.11,0,3.83,1.35,3.83,3V33.1c0,1.68-1.72,3-3.83,3H36.34c-2.11,0-3.82-1.35-3.82-3Zm24,207.73c0,1.67-1.72,3-3.83,3H36.34c-2.11,0-3.82-1.36-3.82-3v-17.7c0-1.67,1.71-3,3.82-3H52.71c2.11,0,3.83,1.35,3.83,3Zm44,0c0,1.67-1.71,3-3.82,3H80.37c-2.11,0-3.82-1.36-3.82-3v-17.7c0-1.67,1.71-3,3.82-3H96.74c2.11,0,3.82,1.35,3.82,3Zm44,0c0,1.67-1.71,3-3.82,3H124.4c-2.11,0-3.82-1.36-3.82-3v-17.7c0-1.67,1.71-3,3.82-3h16.37c2.11,0,3.82,1.35,3.82,3Zm44,0c0,1.67-1.71,3-3.82,3H168.43c-2.11,0-3.83-1.36-3.83-3v-17.7c0-1.67,1.72-3,3.83-3H184.8c2.11,0,3.82,1.35,3.82,3Zm44,0c0,1.67-1.72,3-3.83,3H212.46c-2.12,0-3.83-1.36-3.83-3v-17.7c0-1.67,1.71-3,3.83-3h16.36c2.11,0,3.83,1.35,3.83,3ZM252.66,48V190.53H12.51V48Z"/></g></g></svg>